<svg xmlns="http://www.w3.org/2000/svg" xmlns:xlink="http://www.w3.org/1999/xlink" width="50" zoomAndPan="magnify" viewBox="0 0 37.5 37.499999" height="50" preserveAspectRatio="xMidYMid meet" version="1.0"><defs><g/><clipPath id="d859119ce6"><path d="M 3 2 L 35 2 L 35 37.007812 L 3 37.007812 Z M 3 2 " clip-rule="nonzero"/></clipPath><clipPath id="aeb98699ef"><path d="M 0.078125 0.84375 L 23 0.84375 L 23 35.007812 L 0.078125 35.007812 Z M 0.078125 0.84375 " clip-rule="nonzero"/></clipPath><clipPath id="e9c8763d3d"><path d="M 0.078125 1 L 22 1 L 22 28 L 0.078125 28 Z M 0.078125 1 " clip-rule="nonzero"/></clipPath><clipPath id="03ab8673d3"><rect x="0" width="23" y="0" height="36"/></clipPath><clipPath id="fd1422dbfd"><path d="M 14 5 L 31.105469 5 L 31.105469 35.007812 L 14 35.007812 Z M 14 5 " clip-rule="nonzero"/></clipPath><clipPath id="163df570b5"><rect x="0" width="18" y="0" height="31"/></clipPath><clipPath id="b81d7c9f2a"><rect x="0" width="32" y="0" height="36"/></clipPath></defs><g clip-path="url(#d859119ce6)"><g transform="matrix(1, 0, 0, 1, 3, 2)"><g clip-path="url(#b81d7c9f2a)"><g clip-path="url(#aeb98699ef)"><g><g clip-path="url(#03ab8673d3)"><g clip-path="url(#e9c8763d3d)"><g fill="#545454" fill-opacity="1"><g transform="translate(0.211508, 26.661426)"><g><path d="M 1.71875 -24.679688 L 8.554688 -24.679688 C 12.125 -24.679688 15.175781 -23.457031 17.710938 -21.015625 C 20.257812 -18.566406 21.53125 -15.5 21.53125 -11.816406 C 21.53125 -8.117188 20.265625 -5.042969 17.726562 -2.589844 C 15.203125 -0.148438 12.144531 1.074219 8.554688 1.074219 L 0.644531 1.074219 L 0.644531 -24.679688 Z M 1.71875 -22.535156 L 1.71875 -23.605469 L 2.789062 -23.605469 L 2.789062 0 L 1.71875 0 L 1.71875 -1.074219 L 8.554688 -1.074219 C 11.566406 -1.074219 14.125 -2.09375 16.234375 -4.132812 C 18.335938 -6.164062 19.386719 -8.726562 19.386719 -11.816406 C 19.386719 -14.890625 18.332031 -17.441406 16.222656 -19.472656 C 14.105469 -21.511719 11.546875 -22.535156 8.554688 -22.535156 Z M 7.097656 -5.878906 L 7.925781 -5.878906 C 9.582031 -5.878906 10.929688 -6.429688 11.964844 -7.53125 C 13.023438 -8.652344 13.5625 -10.074219 13.578125 -11.800781 C 13.578125 -13.511719 13.050781 -14.933594 11.992188 -16.0625 C 10.953125 -17.171875 9.597656 -17.726562 7.925781 -17.726562 L 7.097656 -17.726562 L 7.097656 -18.800781 L 8.167969 -18.800781 L 8.167969 -4.808594 L 7.097656 -4.808594 Z M 6.023438 -3.734375 L 6.023438 -19.871094 L 7.925781 -19.871094 C 10.21875 -19.871094 12.097656 -19.089844 13.558594 -17.53125 C 15.003906 -15.988281 15.722656 -14.070312 15.722656 -11.777344 C 15.703125 -9.496094 14.96875 -7.589844 13.527344 -6.058594 C 12.066406 -4.507812 10.199219 -3.734375 7.925781 -3.734375 Z M 6.023438 -3.734375 "/></g></g></g></g><g fill="#1495e3" fill-opacity="1"><g transform="translate(0.211508, 26.661426)"><g><path d="M 1.71875 -23.609375 L 8.546875 -23.609375 C 11.828125 -23.609375 14.628906 -22.484375 16.953125 -20.234375 C 19.285156 -17.992188 20.453125 -15.1875 20.453125 -11.8125 C 20.453125 -8.414062 19.289062 -5.597656 16.96875 -3.359375 C 14.65625 -1.117188 11.847656 0 8.546875 0 L 1.71875 0 Z M 7.09375 -4.8125 L 7.921875 -4.8125 C 9.890625 -4.8125 11.5 -5.472656 12.75 -6.796875 C 14 -8.117188 14.628906 -9.78125 14.640625 -11.78125 C 14.640625 -13.789062 14.015625 -15.460938 12.765625 -16.796875 C 11.523438 -18.128906 9.910156 -18.796875 7.921875 -18.796875 L 7.09375 -18.796875 Z M 7.09375 -4.8125 "/></g></g></g></g></g></g><g clip-path="url(#fd1422dbfd)"><g transform="matrix(1, 0, 0, 1, 14, 5)"><g clip-path="url(#163df570b5)"><g fill="#545454" fill-opacity="1"><g transform="translate(0.95693, 24.83981)"><g><path d="M 15.550781 -22.527344 L 15.550781 -17 L 6.773438 -17 L 6.773438 -18.023438 L 7.796875 -18.023438 L 7.796875 -13.542969 L 6.773438 -13.542969 L 6.773438 -14.566406 L 15.222656 -14.566406 L 15.222656 -8.015625 L 6.773438 -8.015625 L 6.773438 -9.039062 L 7.796875 -9.039062 L 7.796875 -4.503906 L 6.773438 -4.503906 L 6.773438 -5.53125 L 15.550781 -5.53125 L 15.550781 1.023438 L 0.613281 1.023438 L 0.613281 -23.550781 L 15.550781 -23.550781 Z M 13.503906 -22.527344 L 14.527344 -22.527344 L 14.527344 -21.503906 L 1.636719 -21.503906 L 1.636719 -22.527344 L 2.664062 -22.527344 L 2.664062 0 L 1.636719 0 L 1.636719 -1.023438 L 14.527344 -1.023438 L 14.527344 0 L 13.503906 0 L 13.503906 -4.503906 L 14.527344 -4.503906 L 14.527344 -3.480469 L 5.746094 -3.480469 L 5.746094 -10.0625 L 14.199219 -10.0625 L 14.199219 -9.039062 L 13.175781 -9.039062 L 13.175781 -13.542969 L 14.199219 -13.542969 L 14.199219 -12.519531 L 5.746094 -12.519531 L 5.746094 -19.046875 L 14.527344 -19.046875 L 14.527344 -18.023438 L 13.503906 -18.023438 Z M 13.503906 -22.527344 "/></g></g></g><g fill="#fea603" fill-opacity="1"><g transform="translate(0.95693, 24.83981)"><g><path d="M 14.53125 -22.53125 L 14.53125 -18.03125 L 6.78125 -18.03125 L 6.78125 -13.546875 L 14.203125 -13.546875 L 14.203125 -9.046875 L 6.78125 -9.046875 L 6.78125 -4.5 L 14.53125 -4.5 L 14.53125 0 L 1.640625 0 L 1.640625 -22.53125 Z M 14.53125 -22.53125 "/></g></g></g></g></g></g></g></g></g></svg>