<svg xmlns="http://www.w3.org/2000/svg" xmlns:xlink="http://www.w3.org/1999/xlink" width="150" zoomAndPan="magnify" viewBox="0 0 112.5 60" height="80" preserveAspectRatio="xMidYMid meet" version="1.0"><defs><g/><clipPath id="5e6098545a"><path d="M 0 0.132812 L 112 0.132812 L 112 59.867188 L 0 59.867188 Z M 0 0.132812 " clip-rule="nonzero"/></clipPath><clipPath id="4e34faa6fe"><path d="M 47 47 L 51 47 L 51 53 L 47 53 Z M 47 47 " clip-rule="nonzero"/></clipPath><clipPath id="913a19ae31"><path d="M 62.328125 2.289062 L 49.476562 52.878906 L 46.550781 52.136719 L 59.402344 1.546875 Z M 62.328125 2.289062 " clip-rule="nonzero"/></clipPath><clipPath id="c8b6e0fcf0"><path d="M 62.328125 2.289062 L 49.476562 52.878906 L 46.550781 52.136719 L 59.402344 1.546875 Z M 62.328125 2.289062 " clip-rule="nonzero"/></clipPath><clipPath id="bb349efe0b"><path d="M 48 41 L 52 41 L 52 50 L 48 50 Z M 48 41 " clip-rule="nonzero"/></clipPath><clipPath id="32f435db9a"><path d="M 62.328125 2.289062 L 49.476562 52.878906 L 46.550781 52.136719 L 59.402344 1.546875 Z M 62.328125 2.289062 " clip-rule="nonzero"/></clipPath><clipPath id="dc2b94b3c4"><path d="M 62.328125 2.289062 L 49.476562 52.878906 L 46.550781 52.136719 L 59.402344 1.546875 Z M 62.328125 2.289062 " clip-rule="nonzero"/></clipPath><clipPath id="baa781ab24"><path d="M 49 1 L 63 1 L 63 43 L 49 43 Z M 49 1 " clip-rule="nonzero"/></clipPath><clipPath id="641618ea9b"><path d="M 62.328125 2.289062 L 49.476562 52.878906 L 46.550781 52.136719 L 59.402344 1.546875 Z M 62.328125 2.289062 " clip-rule="nonzero"/></clipPath><clipPath id="c03ecdd079"><path d="M 62.328125 2.289062 L 49.476562 52.878906 L 46.550781 52.136719 L 59.402344 1.546875 Z M 62.328125 2.289062 " clip-rule="nonzero"/></clipPath><clipPath id="db62afa738"><path d="M 0 0.132812 L 33 0.132812 L 33 58 L 0 58 Z M 0 0.132812 " clip-rule="nonzero"/></clipPath><clipPath id="2a866e8977"><rect x="0" width="33" y="0" height="58"/></clipPath><clipPath id="65bcd9a132"><path d="M 21 5 L 49 5 L 49 59.867188 L 21 59.867188 Z M 21 5 " clip-rule="nonzero"/></clipPath><clipPath id="85b77861c1"><rect x="0" width="28" y="0" height="55"/></clipPath><clipPath id="d73b59a7b1"><path d="M 106 19 L 111.824219 19 L 111.824219 26 L 106 26 Z M 106 19 " clip-rule="nonzero"/></clipPath><clipPath id="8b595b8eb7"><path d="M 59 26 L 111.824219 26 L 111.824219 41 L 59 41 Z M 59 26 " clip-rule="nonzero"/></clipPath><clipPath id="ea223f720f"><rect x="0" width="53" y="0" height="15"/></clipPath><clipPath id="98ab5ff0a1"><rect x="0" width="112" y="0" height="60"/></clipPath></defs><g clip-path="url(#5e6098545a)"><g transform="matrix(1, 0, 0, 1, 0, -0.00000000000000358)"><g clip-path="url(#98ab5ff0a1)"><g clip-path="url(#4e34faa6fe)"><g clip-path="url(#913a19ae31)"><g clip-path="url(#c8b6e0fcf0)"><path fill="#1495e3" d="M 47.027344 50.347656 L 47.765625 47.441406 L 50.210938 49.980469 L 49.472656 52.886719 Z M 47.027344 50.347656 " fill-opacity="1" fill-rule="nonzero"/></g></g></g><g clip-path="url(#bb349efe0b)"><g clip-path="url(#32f435db9a)"><g clip-path="url(#dc2b94b3c4)"><path fill="#1495e3" d="M 48.023438 46.429688 L 49.289062 41.4375 L 51.726562 44.011719 L 50.460938 49.003906 Z M 48.023438 46.429688 " fill-opacity="1" fill-rule="nonzero"/></g></g></g><g clip-path="url(#baa781ab24)"><g clip-path="url(#641618ea9b)"><g clip-path="url(#c03ecdd079)"><path fill="#1495e3" d="M 62.324219 2.289062 L 59.421875 1.550781 L 56.558594 12.816406 L 49.574219 40.3125 L 51.996094 42.960938 Z M 62.324219 2.289062 " fill-opacity="1" fill-rule="nonzero"/></g></g></g><g clip-path="url(#db62afa738)"><g transform="matrix(1, 0, 0, 1, 0, -0.00000000000000358)"><g clip-path="url(#2a866e8977)"><g fill="#1495e3" fill-opacity="1"><g transform="translate(-2.252574, 40.624233)"><g><path d="M 2.828125 -38.84375 L 14.078125 -38.84375 C 19.472656 -38.84375 24.082031 -37 27.90625 -33.3125 C 31.738281 -29.625 33.65625 -25 33.65625 -19.4375 C 33.65625 -13.851562 31.75 -9.21875 27.9375 -5.53125 C 24.125 -1.84375 19.503906 0 14.078125 0 L 2.828125 0 Z M 11.671875 -7.90625 L 13.046875 -7.90625 C 16.273438 -7.90625 18.914062 -8.992188 20.96875 -11.171875 C 23.03125 -13.359375 24.078125 -16.097656 24.109375 -19.390625 C 24.109375 -22.691406 23.078125 -25.441406 21.015625 -27.640625 C 18.960938 -29.835938 16.304688 -30.9375 13.046875 -30.9375 L 11.671875 -30.9375 Z M 11.671875 -7.90625 "/></g></g></g></g></g></g><g clip-path="url(#65bcd9a132)"><g transform="matrix(1, 0, 0, 1, 21, 5)"><g clip-path="url(#85b77861c1)"><g fill="#545454" fill-opacity="1"><g transform="translate(1.007479, 40.853502)"><g><path d="M 25.585938 -37.0625 L 25.585938 -27.964844 L 11.140625 -27.964844 L 11.140625 -29.652344 L 12.828125 -29.652344 L 12.828125 -22.285156 L 11.140625 -22.285156 L 11.140625 -23.96875 L 25.046875 -23.96875 L 25.046875 -13.1875 L 11.140625 -13.1875 L 11.140625 -14.871094 L 12.828125 -14.871094 L 12.828125 -7.414062 L 11.140625 -7.414062 L 11.140625 -9.097656 L 25.585938 -9.097656 L 25.585938 1.683594 L 1.011719 1.683594 L 1.011719 -38.75 L 25.585938 -38.75 Z M 22.214844 -37.0625 L 23.902344 -37.0625 L 23.902344 -35.378906 L 2.695312 -35.378906 L 2.695312 -37.0625 L 4.378906 -37.0625 L 4.378906 0 L 2.695312 0 L 2.695312 -1.683594 L 23.902344 -1.683594 L 23.902344 0 L 22.214844 0 L 22.214844 -7.414062 L 23.902344 -7.414062 L 23.902344 -5.726562 L 9.457031 -5.726562 L 9.457031 -16.554688 L 23.363281 -16.554688 L 23.363281 -14.871094 L 21.675781 -14.871094 L 21.675781 -22.285156 L 23.363281 -22.285156 L 23.363281 -20.597656 L 9.457031 -20.597656 L 9.457031 -31.335938 L 23.902344 -31.335938 L 23.902344 -29.652344 L 22.214844 -29.652344 Z M 22.214844 -37.0625 "/></g></g></g><g fill="#fea603" fill-opacity="1"><g transform="translate(1.007479, 40.853502)"><g><path d="M 23.90625 -37.0625 L 23.90625 -29.65625 L 11.140625 -29.65625 L 11.140625 -22.28125 L 23.359375 -22.28125 L 23.359375 -14.875 L 11.140625 -14.875 L 11.140625 -7.40625 L 23.90625 -7.40625 L 23.90625 0 L 2.703125 0 L 2.703125 -37.0625 Z M 23.90625 -37.0625 "/></g></g></g></g></g></g><g fill="#ffffff" fill-opacity="1"><g transform="translate(59.486186, 25.468888)"><g><path d="M 2.34375 0 L 0.9375 0 L 0.9375 -7.171875 L 2.34375 -7.171875 Z M 2.34375 0 "/></g></g></g><g fill="#ffffff" fill-opacity="1"><g transform="translate(62.772263, 25.468888)"><g><path d="M 0.78125 0 L 0.78125 -5.40625 L 2.078125 -5.40625 L 2.078125 -4.609375 L 2.1875 -4.59375 C 2.519531 -5.207031 3.066406 -5.515625 3.828125 -5.515625 C 4.453125 -5.515625 4.910156 -5.34375 5.203125 -5 C 5.492188 -4.664062 5.640625 -4.171875 5.640625 -3.515625 L 5.640625 0 L 4.28125 0 L 4.28125 -3.34375 C 4.28125 -3.707031 4.207031 -3.96875 4.0625 -4.125 C 3.914062 -4.28125 3.6875 -4.359375 3.375 -4.359375 C 2.988281 -4.359375 2.6875 -4.234375 2.46875 -3.984375 C 2.25 -3.734375 2.140625 -3.335938 2.140625 -2.796875 L 2.140625 0 Z M 0.78125 0 "/></g></g></g><g fill="#ffffff" fill-opacity="1"><g transform="translate(69.108997, 25.468888)"><g><path d="M 0.78125 0 L 0.78125 -5.40625 L 2.078125 -5.40625 L 2.078125 -4.609375 L 2.1875 -4.59375 C 2.519531 -5.207031 3.066406 -5.515625 3.828125 -5.515625 C 4.453125 -5.515625 4.910156 -5.34375 5.203125 -5 C 5.492188 -4.664062 5.640625 -4.171875 5.640625 -3.515625 L 5.640625 0 L 4.28125 0 L 4.28125 -3.34375 C 4.28125 -3.707031 4.207031 -3.96875 4.0625 -4.125 C 3.914062 -4.28125 3.6875 -4.359375 3.375 -4.359375 C 2.988281 -4.359375 2.6875 -4.234375 2.46875 -3.984375 C 2.25 -3.734375 2.140625 -3.335938 2.140625 -2.796875 L 2.140625 0 Z M 0.78125 0 "/></g></g></g><g fill="#ffffff" fill-opacity="1"><g transform="translate(75.445731, 25.468888)"><g><path d="M 3.140625 0.109375 C 2.609375 0.109375 2.140625 0 1.734375 -0.21875 C 1.335938 -0.4375 1.03125 -0.753906 0.8125 -1.171875 C 0.59375 -1.597656 0.484375 -2.109375 0.484375 -2.703125 C 0.484375 -3.296875 0.59375 -3.800781 0.8125 -4.21875 C 1.03125 -4.644531 1.335938 -4.96875 1.734375 -5.1875 C 2.140625 -5.40625 2.609375 -5.515625 3.140625 -5.515625 C 3.671875 -5.515625 4.132812 -5.40625 4.53125 -5.1875 C 4.9375 -4.96875 5.25 -4.644531 5.46875 -4.21875 C 5.695312 -3.800781 5.8125 -3.296875 5.8125 -2.703125 C 5.8125 -2.109375 5.695312 -1.597656 5.46875 -1.171875 C 5.25 -0.753906 4.9375 -0.4375 4.53125 -0.21875 C 4.132812 0 3.671875 0.109375 3.140625 0.109375 Z M 3.140625 -1.046875 C 3.984375 -1.046875 4.40625 -1.597656 4.40625 -2.703125 C 4.40625 -3.273438 4.296875 -3.691406 4.078125 -3.953125 C 3.859375 -4.222656 3.546875 -4.359375 3.140625 -4.359375 C 2.304688 -4.359375 1.890625 -3.804688 1.890625 -2.703125 C 1.890625 -1.597656 2.304688 -1.046875 3.140625 -1.046875 Z M 3.140625 -1.046875 "/></g></g></g><g fill="#ffffff" fill-opacity="1"><g transform="translate(81.630421, 25.468888)"><g><path d="M 3.71875 0 L 2.109375 0 L 0.109375 -5.40625 L 1.53125 -5.40625 L 2.875 -1.5625 L 2.984375 -1.5625 L 4.328125 -5.40625 L 5.71875 -5.40625 Z M 3.71875 0 "/></g></g></g><g fill="#ffffff" fill-opacity="1"><g transform="translate(87.344271, 25.468888)"><g><path d="M 2.109375 0.109375 C 1.765625 0.109375 1.460938 0.046875 1.203125 -0.078125 C 0.953125 -0.210938 0.753906 -0.398438 0.609375 -0.640625 C 0.472656 -0.890625 0.40625 -1.191406 0.40625 -1.546875 C 0.40625 -1.859375 0.472656 -2.125 0.609375 -2.34375 C 0.753906 -2.5625 0.96875 -2.738281 1.25 -2.875 C 1.539062 -3.019531 1.921875 -3.128906 2.390625 -3.203125 C 2.710938 -3.253906 2.957031 -3.3125 3.125 -3.375 C 3.289062 -3.4375 3.398438 -3.503906 3.453125 -3.578125 C 3.515625 -3.660156 3.546875 -3.765625 3.546875 -3.890625 C 3.546875 -4.054688 3.484375 -4.1875 3.359375 -4.28125 C 3.242188 -4.375 3.046875 -4.421875 2.765625 -4.421875 C 2.460938 -4.421875 2.175781 -4.351562 1.90625 -4.21875 C 1.632812 -4.082031 1.398438 -3.90625 1.203125 -3.6875 L 1.109375 -3.6875 L 0.53125 -4.546875 C 0.8125 -4.847656 1.148438 -5.082031 1.546875 -5.25 C 1.941406 -5.425781 2.367188 -5.515625 2.828125 -5.515625 C 3.546875 -5.515625 4.066406 -5.359375 4.390625 -5.046875 C 4.710938 -4.742188 4.875 -4.316406 4.875 -3.765625 L 4.875 -1.40625 C 4.875 -1.164062 4.976562 -1.046875 5.1875 -1.046875 C 5.269531 -1.046875 5.351562 -1.0625 5.4375 -1.09375 L 5.5 -1.078125 L 5.59375 -0.125 C 5.519531 -0.0703125 5.414062 -0.03125 5.28125 0 C 5.144531 0.03125 5 0.046875 4.84375 0.046875 C 4.519531 0.046875 4.265625 -0.015625 4.078125 -0.140625 C 3.898438 -0.265625 3.769531 -0.460938 3.6875 -0.734375 L 3.59375 -0.734375 C 3.320312 -0.171875 2.828125 0.109375 2.109375 0.109375 Z M 2.546875 -0.90625 C 2.859375 -0.90625 3.109375 -1.007812 3.296875 -1.21875 C 3.484375 -1.4375 3.578125 -1.734375 3.578125 -2.109375 L 3.578125 -2.65625 L 3.484375 -2.671875 C 3.398438 -2.609375 3.289062 -2.554688 3.15625 -2.515625 C 3.03125 -2.472656 2.84375 -2.429688 2.59375 -2.390625 C 2.300781 -2.335938 2.085938 -2.25 1.953125 -2.125 C 1.828125 -2.007812 1.765625 -1.84375 1.765625 -1.625 C 1.765625 -1.394531 1.832031 -1.21875 1.96875 -1.09375 C 2.101562 -0.96875 2.296875 -0.90625 2.546875 -0.90625 Z M 2.546875 -0.90625 "/></g></g></g><g fill="#ffffff" fill-opacity="1"><g transform="translate(92.984553, 25.468888)"><g><path d="M 3.734375 -1.296875 L 4.09375 -0.28125 C 3.9375 -0.164062 3.75 -0.0703125 3.53125 0 C 3.3125 0.0703125 3.0625 0.109375 2.78125 0.109375 C 2.195312 0.109375 1.75 -0.0507812 1.4375 -0.375 C 1.132812 -0.695312 0.984375 -1.160156 0.984375 -1.765625 L 0.984375 -4.34375 L 0.15625 -4.34375 L 0.15625 -5.421875 L 0.984375 -5.421875 L 0.984375 -6.46875 L 2.34375 -6.6875 L 2.34375 -5.421875 L 3.875 -5.421875 L 3.875 -4.34375 L 2.34375 -4.34375 L 2.34375 -1.859375 C 2.34375 -1.597656 2.394531 -1.40625 2.5 -1.28125 C 2.613281 -1.15625 2.78125 -1.09375 3 -1.09375 C 3.238281 -1.09375 3.445312 -1.160156 3.625 -1.296875 Z M 3.734375 -1.296875 "/></g></g></g><g fill="#ffffff" fill-opacity="1"><g transform="translate(97.18779, 25.468888)"><g><path d="M 1.453125 -6.0625 C 1.210938 -6.0625 1.015625 -6.132812 0.859375 -6.28125 C 0.703125 -6.425781 0.625 -6.617188 0.625 -6.859375 C 0.625 -7.085938 0.703125 -7.273438 0.859375 -7.421875 C 1.015625 -7.578125 1.210938 -7.65625 1.453125 -7.65625 C 1.617188 -7.65625 1.765625 -7.617188 1.890625 -7.546875 C 2.015625 -7.484375 2.113281 -7.390625 2.1875 -7.265625 C 2.257812 -7.148438 2.296875 -7.015625 2.296875 -6.859375 C 2.296875 -6.703125 2.257812 -6.5625 2.1875 -6.4375 C 2.113281 -6.320312 2.015625 -6.226562 1.890625 -6.15625 C 1.765625 -6.09375 1.617188 -6.0625 1.453125 -6.0625 Z M 0.78125 0 L 0.78125 -5.40625 L 2.140625 -5.40625 L 2.140625 0 Z M 0.78125 0 "/></g></g></g><g fill="#ffffff" fill-opacity="1"><g transform="translate(100.10112, 25.468888)"><g><path d="M 3.71875 0 L 2.109375 0 L 0.109375 -5.40625 L 1.53125 -5.40625 L 2.875 -1.5625 L 2.984375 -1.5625 L 4.328125 -5.40625 L 5.71875 -5.40625 Z M 3.71875 0 "/></g></g></g><g clip-path="url(#d73b59a7b1)"><g fill="#ffffff" fill-opacity="1"><g transform="translate(105.814968, 25.468888)"><g><path d="M 5.34375 -2.40625 L 1.875 -2.40625 C 1.90625 -1.925781 2.035156 -1.578125 2.265625 -1.359375 C 2.492188 -1.148438 2.804688 -1.046875 3.203125 -1.046875 C 3.515625 -1.046875 3.765625 -1.101562 3.953125 -1.21875 C 4.148438 -1.332031 4.3125 -1.507812 4.4375 -1.75 L 4.53125 -1.75 L 5.4375 -1.171875 C 5.257812 -0.796875 4.988281 -0.488281 4.625 -0.25 C 4.269531 -0.0078125 3.796875 0.109375 3.203125 0.109375 C 2.648438 0.109375 2.164062 0.00390625 1.75 -0.203125 C 1.34375 -0.421875 1.03125 -0.738281 0.8125 -1.15625 C 0.59375 -1.582031 0.484375 -2.097656 0.484375 -2.703125 C 0.484375 -3.316406 0.597656 -3.832031 0.828125 -4.25 C 1.066406 -4.675781 1.382812 -4.992188 1.78125 -5.203125 C 2.175781 -5.410156 2.617188 -5.515625 3.109375 -5.515625 C 3.878906 -5.515625 4.46875 -5.3125 4.875 -4.90625 C 5.28125 -4.5 5.484375 -3.90625 5.484375 -3.125 C 5.484375 -2.832031 5.472656 -2.609375 5.453125 -2.453125 Z M 4.171875 -3.28125 C 4.160156 -3.6875 4.066406 -3.984375 3.890625 -4.171875 C 3.710938 -4.359375 3.453125 -4.453125 3.109375 -4.453125 C 2.421875 -4.453125 2.019531 -4.0625 1.90625 -3.28125 Z M 4.171875 -3.28125 "/></g></g></g></g><g clip-path="url(#8b595b8eb7)"><g transform="matrix(1, 0, 0, 1, 59, 26)"><g clip-path="url(#ea223f720f)"><g fill="#ffffff" fill-opacity="1"><g transform="translate(0.961797, 11.569051)"><g><path d="M 3.171875 0.109375 C 2.679688 0.109375 2.238281 0.046875 1.84375 -0.078125 C 1.457031 -0.203125 1.132812 -0.363281 0.875 -0.5625 C 0.625 -0.757812 0.429688 -0.976562 0.296875 -1.21875 L 1.0625 -2.171875 L 1.1875 -2.171875 C 1.40625 -1.847656 1.679688 -1.59375 2.015625 -1.40625 C 2.347656 -1.21875 2.734375 -1.125 3.171875 -1.125 C 3.554688 -1.125 3.84375 -1.203125 4.03125 -1.359375 C 4.226562 -1.523438 4.328125 -1.75 4.328125 -2.03125 C 4.328125 -2.195312 4.296875 -2.335938 4.234375 -2.453125 C 4.171875 -2.566406 4.066406 -2.664062 3.921875 -2.75 C 3.773438 -2.832031 3.582031 -2.898438 3.34375 -2.953125 L 2.421875 -3.171875 C 1.773438 -3.316406 1.289062 -3.5625 0.96875 -3.90625 C 0.65625 -4.25 0.5 -4.691406 0.5 -5.234375 C 0.5 -5.640625 0.597656 -5.992188 0.796875 -6.296875 C 1.003906 -6.609375 1.300781 -6.847656 1.6875 -7.015625 C 2.082031 -7.191406 2.546875 -7.28125 3.078125 -7.28125 C 3.640625 -7.28125 4.113281 -7.207031 4.5 -7.0625 C 4.894531 -6.914062 5.226562 -6.691406 5.5 -6.390625 L 4.796875 -5.421875 L 4.6875 -5.421875 C 4.476562 -5.640625 4.242188 -5.800781 3.984375 -5.90625 C 3.722656 -6.007812 3.421875 -6.0625 3.078125 -6.0625 C 2.691406 -6.0625 2.394531 -5.992188 2.1875 -5.859375 C 1.988281 -5.722656 1.890625 -5.53125 1.890625 -5.28125 C 1.890625 -5.0625 1.960938 -4.882812 2.109375 -4.75 C 2.253906 -4.613281 2.5 -4.507812 2.84375 -4.4375 L 3.78125 -4.234375 C 4.476562 -4.085938 4.984375 -3.835938 5.296875 -3.484375 C 5.617188 -3.140625 5.78125 -2.679688 5.78125 -2.109375 C 5.78125 -1.660156 5.679688 -1.269531 5.484375 -0.9375 C 5.285156 -0.613281 4.992188 -0.359375 4.609375 -0.171875 C 4.222656 0.015625 3.742188 0.109375 3.171875 0.109375 Z M 3.171875 0.109375 "/></g></g><g transform="translate(7.119035, 11.569051)"><g><path d="M 3.140625 0.109375 C 2.609375 0.109375 2.140625 0 1.734375 -0.21875 C 1.335938 -0.4375 1.03125 -0.753906 0.8125 -1.171875 C 0.59375 -1.597656 0.484375 -2.109375 0.484375 -2.703125 C 0.484375 -3.296875 0.59375 -3.800781 0.8125 -4.21875 C 1.03125 -4.644531 1.335938 -4.96875 1.734375 -5.1875 C 2.140625 -5.40625 2.609375 -5.515625 3.140625 -5.515625 C 3.671875 -5.515625 4.132812 -5.40625 4.53125 -5.1875 C 4.9375 -4.96875 5.25 -4.644531 5.46875 -4.21875 C 5.695312 -3.800781 5.8125 -3.296875 5.8125 -2.703125 C 5.8125 -2.109375 5.695312 -1.597656 5.46875 -1.171875 C 5.25 -0.753906 4.9375 -0.4375 4.53125 -0.21875 C 4.132812 0 3.671875 0.109375 3.140625 0.109375 Z M 3.140625 -1.046875 C 3.984375 -1.046875 4.40625 -1.597656 4.40625 -2.703125 C 4.40625 -3.273438 4.296875 -3.691406 4.078125 -3.953125 C 3.859375 -4.222656 3.546875 -4.359375 3.140625 -4.359375 C 2.304688 -4.359375 1.890625 -3.804688 1.890625 -2.703125 C 1.890625 -1.597656 2.304688 -1.046875 3.140625 -1.046875 Z M 3.140625 -1.046875 "/></g></g><g transform="translate(13.403731, 11.569051)"><g><path d="M 2.25 0.109375 C 1.757812 0.109375 1.382812 -0.0195312 1.125 -0.28125 C 0.875 -0.550781 0.75 -0.953125 0.75 -1.484375 L 0.75 -7.578125 L 2.109375 -7.578125 L 2.109375 -1.546875 C 2.109375 -1.210938 2.242188 -1.046875 2.515625 -1.046875 C 2.597656 -1.046875 2.679688 -1.0625 2.765625 -1.09375 L 2.828125 -1.0625 L 2.953125 -0.03125 C 2.878906 0.0078125 2.78125 0.0390625 2.65625 0.0625 C 2.53125 0.09375 2.394531 0.109375 2.25 0.109375 Z M 2.25 0.109375 "/></g></g><g transform="translate(16.511764, 11.569051)"><g><path d="M 2.484375 0.109375 C 1.867188 0.109375 1.414062 -0.0546875 1.125 -0.390625 C 0.84375 -0.722656 0.703125 -1.203125 0.703125 -1.828125 L 0.703125 -5.40625 L 2.0625 -5.40625 L 2.0625 -2 C 2.0625 -1.664062 2.128906 -1.421875 2.265625 -1.265625 C 2.410156 -1.117188 2.628906 -1.046875 2.921875 -1.046875 C 3.304688 -1.046875 3.601562 -1.164062 3.8125 -1.40625 C 4.019531 -1.65625 4.125 -2.046875 4.125 -2.578125 L 4.125 -5.40625 L 5.484375 -5.40625 L 5.484375 0 L 4.171875 0 L 4.171875 -0.796875 L 4.078125 -0.8125 C 3.898438 -0.507812 3.6875 -0.28125 3.4375 -0.125 C 3.1875 0.03125 2.867188 0.109375 2.484375 0.109375 Z M 2.484375 0.109375 "/></g></g><g transform="translate(22.767047, 11.569051)"><g><path d="M 3.734375 -1.296875 L 4.09375 -0.28125 C 3.9375 -0.164062 3.75 -0.0703125 3.53125 0 C 3.3125 0.0703125 3.0625 0.109375 2.78125 0.109375 C 2.195312 0.109375 1.75 -0.0507812 1.4375 -0.375 C 1.132812 -0.695312 0.984375 -1.160156 0.984375 -1.765625 L 0.984375 -4.34375 L 0.15625 -4.34375 L 0.15625 -5.421875 L 0.984375 -5.421875 L 0.984375 -6.46875 L 2.34375 -6.6875 L 2.34375 -5.421875 L 3.875 -5.421875 L 3.875 -4.34375 L 2.34375 -4.34375 L 2.34375 -1.859375 C 2.34375 -1.597656 2.394531 -1.40625 2.5 -1.28125 C 2.613281 -1.15625 2.78125 -1.09375 3 -1.09375 C 3.238281 -1.09375 3.445312 -1.160156 3.625 -1.296875 Z M 3.734375 -1.296875 "/></g></g><g transform="translate(26.968283, 11.569051)"><g><path d="M 1.453125 -6.0625 C 1.210938 -6.0625 1.015625 -6.132812 0.859375 -6.28125 C 0.703125 -6.425781 0.625 -6.617188 0.625 -6.859375 C 0.625 -7.085938 0.703125 -7.273438 0.859375 -7.421875 C 1.015625 -7.578125 1.210938 -7.65625 1.453125 -7.65625 C 1.617188 -7.65625 1.765625 -7.617188 1.890625 -7.546875 C 2.015625 -7.484375 2.113281 -7.390625 2.1875 -7.265625 C 2.257812 -7.148438 2.296875 -7.015625 2.296875 -6.859375 C 2.296875 -6.703125 2.257812 -6.5625 2.1875 -6.4375 C 2.113281 -6.320312 2.015625 -6.226562 1.890625 -6.15625 C 1.765625 -6.09375 1.617188 -6.0625 1.453125 -6.0625 Z M 0.78125 0 L 0.78125 -5.40625 L 2.140625 -5.40625 L 2.140625 0 Z M 0.78125 0 "/></g></g><g transform="translate(29.880225, 11.569051)"><g><path d="M 3.140625 0.109375 C 2.609375 0.109375 2.140625 0 1.734375 -0.21875 C 1.335938 -0.4375 1.03125 -0.753906 0.8125 -1.171875 C 0.59375 -1.597656 0.484375 -2.109375 0.484375 -2.703125 C 0.484375 -3.296875 0.59375 -3.800781 0.8125 -4.21875 C 1.03125 -4.644531 1.335938 -4.96875 1.734375 -5.1875 C 2.140625 -5.40625 2.609375 -5.515625 3.140625 -5.515625 C 3.671875 -5.515625 4.132812 -5.40625 4.53125 -5.1875 C 4.9375 -4.96875 5.25 -4.644531 5.46875 -4.21875 C 5.695312 -3.800781 5.8125 -3.296875 5.8125 -2.703125 C 5.8125 -2.109375 5.695312 -1.597656 5.46875 -1.171875 C 5.25 -0.753906 4.9375 -0.4375 4.53125 -0.21875 C 4.132812 0 3.671875 0.109375 3.140625 0.109375 Z M 3.140625 -1.046875 C 3.984375 -1.046875 4.40625 -1.597656 4.40625 -2.703125 C 4.40625 -3.273438 4.296875 -3.691406 4.078125 -3.953125 C 3.859375 -4.222656 3.546875 -4.359375 3.140625 -4.359375 C 2.304688 -4.359375 1.890625 -3.804688 1.890625 -2.703125 C 1.890625 -1.597656 2.304688 -1.046875 3.140625 -1.046875 Z M 3.140625 -1.046875 "/></g></g><g transform="translate(36.164922, 11.569051)"><g><path d="M 0.78125 0 L 0.78125 -5.40625 L 2.078125 -5.40625 L 2.078125 -4.609375 L 2.1875 -4.59375 C 2.519531 -5.207031 3.066406 -5.515625 3.828125 -5.515625 C 4.453125 -5.515625 4.910156 -5.34375 5.203125 -5 C 5.492188 -4.664062 5.640625 -4.171875 5.640625 -3.515625 L 5.640625 0 L 4.28125 0 L 4.28125 -3.34375 C 4.28125 -3.707031 4.207031 -3.96875 4.0625 -4.125 C 3.914062 -4.28125 3.6875 -4.359375 3.375 -4.359375 C 2.988281 -4.359375 2.6875 -4.234375 2.46875 -3.984375 C 2.25 -3.734375 2.140625 -3.335938 2.140625 -2.796875 L 2.140625 0 Z M 0.78125 0 "/></g></g><g transform="translate(42.498641, 11.569051)"><g><path d="M 2.53125 0.109375 C 2.164062 0.109375 1.828125 0.0664062 1.515625 -0.015625 C 1.210938 -0.109375 0.953125 -0.226562 0.734375 -0.375 C 0.515625 -0.53125 0.351562 -0.707031 0.25 -0.90625 L 1 -1.71875 L 1.109375 -1.71875 C 1.285156 -1.476562 1.492188 -1.296875 1.734375 -1.171875 C 1.984375 -1.054688 2.253906 -1 2.546875 -1 C 2.804688 -1 3.003906 -1.046875 3.140625 -1.140625 C 3.273438 -1.234375 3.34375 -1.367188 3.34375 -1.546875 C 3.34375 -1.679688 3.289062 -1.796875 3.1875 -1.890625 C 3.09375 -1.984375 2.941406 -2.054688 2.734375 -2.109375 L 2.015625 -2.28125 C 1.472656 -2.40625 1.078125 -2.597656 0.828125 -2.859375 C 0.585938 -3.128906 0.46875 -3.46875 0.46875 -3.875 C 0.46875 -4.207031 0.550781 -4.5 0.71875 -4.75 C 0.894531 -5 1.140625 -5.1875 1.453125 -5.3125 C 1.765625 -5.445312 2.128906 -5.515625 2.546875 -5.515625 C 3.023438 -5.515625 3.425781 -5.441406 3.75 -5.296875 C 4.070312 -5.160156 4.320312 -4.972656 4.5 -4.734375 L 3.78125 -3.953125 L 3.671875 -3.953125 C 3.523438 -4.117188 3.359375 -4.238281 3.171875 -4.3125 C 2.984375 -4.394531 2.773438 -4.4375 2.546875 -4.4375 C 2.003906 -4.4375 1.734375 -4.269531 1.734375 -3.9375 C 1.734375 -3.800781 1.78125 -3.6875 1.875 -3.59375 C 1.976562 -3.507812 2.15625 -3.441406 2.40625 -3.390625 L 3.078125 -3.234375 C 3.628906 -3.117188 4.03125 -2.929688 4.28125 -2.671875 C 4.539062 -2.410156 4.671875 -2.0625 4.671875 -1.625 C 4.671875 -1.28125 4.582031 -0.976562 4.40625 -0.71875 C 4.238281 -0.457031 3.992188 -0.253906 3.671875 -0.109375 C 3.347656 0.0351562 2.96875 0.109375 2.53125 0.109375 Z M 2.53125 0.109375 "/></g></g></g><g fill="#ffffff" fill-opacity="1"><g transform="translate(47.48513, 11.569051)"><g/></g><g transform="translate(49.852921, 11.569051)"><g/></g></g></g></g></g></g></g></g></svg>